<svg width="34" height="52" viewBox="0 0 34 52" fill="none" xmlns="http://www.w3.org/2000/svg">
<path d="M15.8289 14.0524C19.1571 14.0524 21.8552 11.3544 21.8552 8.02621C21.8552 4.69803 19.1571 2 15.8289 2C12.5008 2 9.80273 4.69803 9.80273 8.02621C9.80273 11.3544 12.5008 14.0524 15.8289 14.0524Z" stroke="#FF7E00" stroke-width="3"/>
<mask id="path-2-inside-1_50_386" fill="white">
<path d="M15.0849 41.2982C15.2098 41.5021 15.3739 41.6793 15.5678 41.8193C15.7616 41.9594 15.9814 42.0596 16.2142 42.1142C16.4471 42.1687 16.6884 42.1765 16.9243 42.1371C17.1602 42.0978 17.3859 42.012 17.5884 41.8847C17.7909 41.7575 17.9662 41.5913 18.104 41.3959C18.2418 41.2004 18.3395 40.9796 18.3914 40.7461C18.4433 40.5127 18.4483 40.2712 18.4062 40.0358C18.3641 39.8004 18.2758 39.5756 18.1462 39.3746L15.0849 41.2982ZM21.2895 51.1715C21.5473 51.5715 21.9524 51.8538 22.4169 51.957C22.8815 52.0602 23.368 51.9761 23.771 51.723C24.1739 51.4698 24.4608 51.0679 24.5693 50.6046C24.6779 50.1412 24.5993 49.6538 24.3508 49.248L21.2895 51.1715ZM0.807597 31.7382C0.752319 31.9713 0.743899 32.213 0.782826 32.4493C0.821754 32.6856 0.907251 32.9118 1.03435 33.1149C1.16146 33.3179 1.32763 33.4936 1.52322 33.6318C1.71881 33.77 1.93992 33.868 2.17371 33.9201C2.40749 33.9722 2.64929 33.9772 2.88505 33.9351C3.12082 33.8929 3.34586 33.8043 3.54709 33.6744C3.74832 33.5445 3.92173 33.3759 4.05726 33.1784C4.19278 32.9809 4.28772 32.7585 4.33655 32.524L0.807597 31.7382ZM32.0692 30.2292C32.5068 30.0647 32.8637 29.7369 33.0649 29.3148C33.266 28.8926 33.2958 28.409 33.1479 27.9654C33 27.5218 32.686 27.1527 32.2718 26.9357C31.8577 26.7187 31.3755 26.6706 30.9266 26.8015L32.0692 30.2292ZM22.0777 45.6322C21.8199 45.2322 21.4148 44.95 20.9503 44.8468C20.4857 44.7435 19.9992 44.8276 19.5962 45.0808C19.1933 45.334 18.9064 45.7359 18.7979 46.1992C18.6893 46.6625 18.7678 47.15 19.0164 47.5558L22.0777 45.6322ZM11.621 21.1032L11.2378 24.9286L14.8366 25.2902L15.2175 21.4647L11.621 21.1032ZM13.4193 19.4761H12.7178V23.0918H13.4193V19.4761ZM1.54038 28.4431L0.807597 31.7382L4.33655 32.524L5.06933 29.2265L1.54038 28.4431ZM13.4193 23.0918H17.6858V19.4761H13.4193V23.0918ZM30.3095 30.8174L32.0692 30.2292L30.9266 26.8015L29.1669 27.3873L30.3095 30.8174ZM17.6858 23.0918C18.1004 23.0918 18.2161 23.0918 18.3077 23.099L18.5656 19.4929C18.3125 19.4761 18.0426 19.4761 17.6858 19.4761V23.0918ZM24.6208 24.8924C24.534 24.5453 24.4713 24.2826 24.3918 24.0415L20.9544 25.1672C20.9834 25.254 21.0123 25.3649 21.1135 25.7699L24.6208 24.8924ZM18.3077 23.099C19.5298 23.1882 20.5712 24.003 20.9544 25.1672L24.3918 24.0415C23.982 22.7906 23.2091 21.6899 22.1715 20.8798C21.1339 20.0698 19.8786 19.587 18.5656 19.4929L18.3077 23.099ZM12.7202 19.4761C10.9123 19.4761 9.39133 19.4737 8.1644 19.6207C6.88925 19.7774 5.72499 20.1149 4.70535 20.9344L6.96639 23.7547C7.2677 23.5136 7.68953 23.3208 8.60069 23.2099C9.55766 23.0942 10.8208 23.0918 12.7202 23.0918V19.4761ZM5.07174 29.2265C5.48394 27.3728 5.76114 26.1411 6.08415 25.2323C6.38787 24.3669 6.66749 23.9957 6.96639 23.7547L4.70535 20.9344C3.68331 21.754 3.09997 22.8146 2.67331 24.0271C2.26353 25.1913 1.9357 26.6762 1.54038 28.4431L5.07174 29.2265ZM21.1135 25.7674C21.2292 26.2327 21.316 26.5798 21.4197 26.8787L24.8377 25.6927C24.7571 25.4285 24.6831 25.1616 24.6208 24.8924L21.1135 25.7674ZM29.1669 27.3873C28.6366 27.5633 28.4896 27.6115 28.3787 27.638L29.2127 31.1573C29.5189 31.085 29.8563 30.9669 30.3095 30.8174L29.1669 27.3873ZM21.4197 26.8787C21.9581 28.4302 23.0534 29.7266 24.4932 30.5166C25.933 31.3067 27.6148 31.5365 29.2127 31.1573L28.3787 27.638C27.6523 27.8107 26.8877 27.7052 26.233 27.3462C25.5783 26.9873 25.0803 26.398 24.8353 25.6927L21.4197 26.8787ZM11.2378 24.9286C10.8424 28.8842 10.5821 31.2754 11.1269 33.5919L14.6462 32.7651C14.2726 31.1693 14.4172 29.4844 14.8366 25.2902L11.2378 24.9286ZM18.1462 39.3746C15.9045 35.8047 15.0222 34.3608 14.6462 32.7651L11.1269 33.5919C11.6717 35.9108 12.9709 37.9307 15.0873 41.2982L18.1462 39.3746ZM19.0188 47.5558L21.2895 51.1715L24.3532 49.248L22.0801 45.6322L19.0188 47.5558Z"/>
</mask>
<path d="M15.0849 41.2982C15.2098 41.5021 15.3739 41.6793 15.5678 41.8193C15.7616 41.9594 15.9814 42.0596 16.2142 42.1142C16.4471 42.1687 16.6884 42.1765 16.9243 42.1371C17.1602 42.0978 17.3859 42.012 17.5884 41.8847C17.7909 41.7575 17.9662 41.5913 18.104 41.3959C18.2418 41.2004 18.3395 40.9796 18.3914 40.7461C18.4433 40.5127 18.4483 40.2712 18.4062 40.0358C18.3641 39.8004 18.2758 39.5756 18.1462 39.3746L15.0849 41.2982ZM21.2895 51.1715C21.5473 51.5715 21.9524 51.8538 22.4169 51.957C22.8815 52.0602 23.368 51.9761 23.771 51.723C24.1739 51.4698 24.4608 51.0679 24.5693 50.6046C24.6779 50.1412 24.5993 49.6538 24.3508 49.248L21.2895 51.1715ZM0.807597 31.7382C0.752319 31.9713 0.743899 32.213 0.782826 32.4493C0.821754 32.6856 0.907251 32.9118 1.03435 33.1149C1.16146 33.3179 1.32763 33.4936 1.52322 33.6318C1.71881 33.77 1.93992 33.868 2.17371 33.9201C2.40749 33.9722 2.64929 33.9772 2.88505 33.9351C3.12082 33.8929 3.34586 33.8043 3.54709 33.6744C3.74832 33.5445 3.92173 33.3759 4.05726 33.1784C4.19278 32.9809 4.28772 32.7585 4.33655 32.524L0.807597 31.7382ZM32.0692 30.2292C32.5068 30.0647 32.8637 29.7369 33.0649 29.3148C33.266 28.8926 33.2958 28.409 33.1479 27.9654C33 27.5218 32.686 27.1527 32.2718 26.9357C31.8577 26.7187 31.3755 26.6706 30.9266 26.8015L32.0692 30.2292ZM22.0777 45.6322C21.8199 45.2322 21.4148 44.95 20.9503 44.8468C20.4857 44.7435 19.9992 44.8276 19.5962 45.0808C19.1933 45.334 18.9064 45.7359 18.7979 46.1992C18.6893 46.6625 18.7678 47.15 19.0164 47.5558L22.0777 45.6322ZM11.621 21.1032L11.2378 24.9286L14.8366 25.2902L15.2175 21.4647L11.621 21.1032ZM13.4193 19.4761H12.7178V23.0918H13.4193V19.4761ZM1.54038 28.4431L0.807597 31.7382L4.33655 32.524L5.06933 29.2265L1.54038 28.4431ZM13.4193 23.0918H17.6858V19.4761H13.4193V23.0918ZM30.3095 30.8174L32.0692 30.2292L30.9266 26.8015L29.1669 27.3873L30.3095 30.8174ZM17.6858 23.0918C18.1004 23.0918 18.2161 23.0918 18.3077 23.099L18.5656 19.4929C18.3125 19.4761 18.0426 19.4761 17.6858 19.4761V23.0918ZM24.6208 24.8924C24.534 24.5453 24.4713 24.2826 24.3918 24.0415L20.9544 25.1672C20.9834 25.254 21.0123 25.3649 21.1135 25.7699L24.6208 24.8924ZM18.3077 23.099C19.5298 23.1882 20.5712 24.003 20.9544 25.1672L24.3918 24.0415C23.982 22.7906 23.2091 21.6899 22.1715 20.8798C21.1339 20.0698 19.8786 19.587 18.5656 19.4929L18.3077 23.099ZM12.7202 19.4761C10.9123 19.4761 9.39133 19.4737 8.1644 19.6207C6.88925 19.7774 5.72499 20.1149 4.70535 20.9344L6.96639 23.7547C7.2677 23.5136 7.68953 23.3208 8.60069 23.2099C9.55766 23.0942 10.8208 23.0918 12.7202 23.0918V19.4761ZM5.07174 29.2265C5.48394 27.3728 5.76114 26.1411 6.08415 25.2323C6.38787 24.3669 6.66749 23.9957 6.96639 23.7547L4.70535 20.9344C3.68331 21.754 3.09997 22.8146 2.67331 24.0271C2.26353 25.1913 1.9357 26.6762 1.54038 28.4431L5.07174 29.2265ZM21.1135 25.7674C21.2292 26.2327 21.316 26.5798 21.4197 26.8787L24.8377 25.6927C24.7571 25.4285 24.6831 25.1616 24.6208 24.8924L21.1135 25.7674ZM29.1669 27.3873C28.6366 27.5633 28.4896 27.6115 28.3787 27.638L29.2127 31.1573C29.5189 31.085 29.8563 30.9669 30.3095 30.8174L29.1669 27.3873ZM21.4197 26.8787C21.9581 28.4302 23.0534 29.7266 24.4932 30.5166C25.933 31.3067 27.6148 31.5365 29.2127 31.1573L28.3787 27.638C27.6523 27.8107 26.8877 27.7052 26.233 27.3462C25.5783 26.9873 25.0803 26.398 24.8353 25.6927L21.4197 26.8787ZM11.2378 24.9286C10.8424 28.8842 10.5821 31.2754 11.1269 33.5919L14.6462 32.7651C14.2726 31.1693 14.4172 29.4844 14.8366 25.2902L11.2378 24.9286ZM18.1462 39.3746C15.9045 35.8047 15.0222 34.3608 14.6462 32.7651L11.1269 33.5919C11.6717 35.9108 12.9709 37.9307 15.0873 41.2982L18.1462 39.3746ZM19.0188 47.5558L21.2895 51.1715L24.3532 49.248L22.0801 45.6322L19.0188 47.5558Z" fill="black"/>
<path d="M14.8366 25.2902L14.6868 26.7827L14.9866 23.7977L14.8366 25.2902ZM29.1669 27.3873L30.59 26.9129L27.7438 27.8613L29.1669 27.3873ZM18.3077 23.099L16.8115 22.992L19.8038 23.207L18.3077 23.099ZM20.9544 25.1672L20.4876 23.7417L21.4198 26.5932L20.9544 25.1672ZM6.96639 23.7547L5.79703 24.6942L8.13671 22.8164L6.96639 23.7547ZM13.036 25.1094L12.8861 26.6019L14.6868 26.7827L14.8366 25.2902L14.9865 23.7977L13.1858 23.6169L13.036 25.1094ZM3.30486 28.8336L2.97883 30.2977L4.7433 30.6906L5.06933 29.2265L5.39536 27.7623L3.63089 27.3694L3.30486 28.8336ZM4.33655 32.524L4.66258 31.0599L1.13363 30.2741L0.807597 31.7382L0.481566 33.2023L4.01051 33.9882L4.33655 32.524ZM29.7382 29.1011L31.1613 28.6268L30.59 26.9129L29.1669 27.3873L27.7439 27.8616L28.3152 29.5755L29.7382 29.1011ZM30.9266 26.8015L29.5036 27.2759L30.6461 30.7036L32.0692 30.2292L33.4922 29.7549L32.3496 26.3272L30.9266 26.8015ZM18.4379 21.296L16.9418 21.188L16.8116 22.991L18.3077 23.099L19.8038 23.207L19.934 21.404L18.4379 21.296ZM22.8684 25.3287L22.5045 23.8735L20.7497 24.3122L21.1135 25.7674L21.4773 27.2227L23.2322 26.7839L22.8684 25.3287ZM22.6755 24.6056L22.2102 23.1796L20.4891 23.7412L20.9544 25.1672L21.4198 26.5932L23.1409 26.0316L22.6755 24.6056ZM5.83346 22.3446L4.66411 23.284L5.79703 24.6942L6.96639 23.7547L8.13574 22.8152L7.00281 21.4051L5.83346 22.3446ZM23.1263 26.2857L23.618 27.7028L25.327 27.1098L24.8353 25.6927L24.3436 24.2756L22.6346 24.8686L23.1263 26.2857ZM28.7909 29.3952L30.2509 29.0512L29.8363 27.2916L28.3763 27.6356L26.9163 27.9796L27.3309 29.7392L28.7909 29.3952ZM11.2378 24.9286L11.0878 26.4211L14.6867 26.7827L14.8366 25.2902L14.9866 23.7977L11.3877 23.4361L11.2378 24.9286ZM13.4193 23.0918H14.9193V19.4761H13.4193H11.9193V23.0918H13.4193ZM17.6858 23.0918H19.1858V19.4761H17.6858H16.1858V23.0918H17.6858ZM29.1669 27.3873L27.7438 27.8613L28.8864 31.2914L30.3095 30.8174L31.7326 30.3434L30.5901 26.9132L29.1669 27.3873ZM18.3077 23.099L19.8039 23.206L20.0618 19.6L18.5656 19.4929L17.0695 19.3859L16.8115 22.992L18.3077 23.099ZM24.3918 24.0415L23.9249 22.616L20.4876 23.7417L20.9544 25.1672L21.4213 26.5927L24.8586 25.467L24.3918 24.0415ZM4.70535 20.9344L3.53502 21.8727L5.79606 24.6929L6.96639 23.7547L8.13671 22.8164L5.87568 19.9962L4.70535 20.9344ZM28.3787 27.638L26.9191 27.9839L27.7532 31.5032L29.2127 31.1573L30.6723 30.8114L29.8383 27.2921L28.3787 27.638ZM11.1269 33.5919L11.4699 35.0521L14.9892 34.2253L14.6462 32.7651L14.3031 31.3048L10.7838 32.1316L11.1269 33.5919ZM14.8366 25.2902L17.8217 25.5887L17.8219 25.5874L14.8366 25.2902ZM15.0849 41.2982L13.4888 38.758L10.9776 40.3359L12.5266 42.8651L15.0849 41.2982ZM16.9243 42.1371L17.4184 45.0962L16.9243 42.1371ZM21.2895 51.1715L18.7489 52.767L18.7583 52.7819L18.7678 52.7967L21.2895 51.1715ZM24.3508 49.248L26.9091 47.6811L25.3242 45.0933L22.7547 46.7078L24.3508 49.248ZM5.06933 29.2265L7.99789 29.8773L8.64883 26.9481L5.71949 26.2978L5.06933 29.2265ZM0.807597 31.7382L3.7266 32.4306L3.73148 32.4101L3.73606 32.3895L0.807597 31.7382ZM4.33655 32.524L1.40798 31.8732L1.40364 31.8928L1.39955 31.9124L4.33655 32.524ZM29.1669 27.3873L30.1117 30.2346L30.1145 30.2337L29.1669 27.3873ZM32.0692 30.2292L33.0202 33.0745L33.073 33.0569L33.1252 33.0372L32.0692 30.2292ZM30.9266 26.8015L30.0866 23.9215L30.0325 23.9373L29.9791 23.9551L30.9266 26.8015ZM18.3077 23.099L18.0716 26.0897L18.0805 26.0904L18.0894 26.0911L18.3077 23.099ZM21.1135 25.7674L20.3873 22.8567L17.4787 23.5823L18.2022 26.4915L21.1135 25.7674ZM20.9544 25.1672L18.1048 26.1053L18.1084 26.1159L20.9544 25.1672ZM6.96639 23.7547L5.09229 21.4121L5.08313 21.4194L6.96639 23.7547ZM24.8353 25.6927L27.6693 24.7085L26.6851 21.8747L23.8513 22.8587L24.8353 25.6927ZM22.0777 45.6322L23.6738 48.1724L26.2433 46.5579L24.5994 44.0071L22.0777 45.6322ZM19.0164 47.5558L16.4581 49.1227L18.043 51.7105L20.6125 50.096L19.0164 47.5558ZM11.621 21.1032L11.9211 18.1182L8.93515 17.818L8.63597 20.8041L11.621 21.1032ZM11.2378 24.9286L8.25271 24.6295L8.25264 24.6303L11.2378 24.9286ZM15.2175 21.4647L18.2027 21.7619L18.4996 18.7796L15.5176 18.4798L15.2175 21.4647ZM12.7178 19.4761V16.4761H9.7178V19.4761H12.7178ZM12.7178 23.0918H9.7178V26.0918H12.7178V23.0918ZM1.54038 28.4431L-1.38724 27.7881L-1.38808 27.7918L1.54038 28.4431ZM30.3095 30.8174L31.2491 33.6665L31.2605 33.6627L30.3095 30.8174ZM18.5656 19.4929L18.7799 16.5006L18.7725 16.5001L18.7652 16.4996L18.5656 19.4929ZM24.6208 24.8924L27.5434 24.2157L27.5375 24.1902L27.5312 24.1648L24.6208 24.8924ZM24.3918 24.0415L21.5408 24.9753L21.5429 24.9817L24.3918 24.0415ZM21.1135 25.7699L18.2031 26.4975L18.9308 29.4084L21.8416 28.6802L21.1135 25.7699ZM12.7202 19.4761H15.7202V16.4761H12.7202V19.4761ZM8.1644 19.6207L7.80742 16.642L7.79853 16.6431L8.1644 19.6207ZM4.70535 20.9344L6.58213 23.2749L6.58482 23.2727L4.70535 20.9344ZM8.60069 23.2099L8.2406 20.2316L8.23829 20.2319L8.60069 23.2099ZM12.7202 23.0918V26.0918H15.7202V23.0918H12.7202ZM5.07174 29.2265L4.42201 32.1553L7.34935 32.8047L8.00022 29.8777L5.07174 29.2265ZM6.08415 25.2323L8.91092 26.2371L8.91486 26.2258L6.08415 25.2323ZM2.67331 24.0271L5.50315 25.0231L5.50322 25.0229L2.67331 24.0271ZM21.4197 26.8787L18.5852 27.8616L18.5855 27.8623L21.4197 26.8787ZM24.8377 25.6927L25.8211 28.527L28.5505 27.5799L27.707 24.8168L24.8377 25.6927ZM28.3787 27.638L29.0728 30.5566L29.0764 30.5557L28.3787 27.638ZM29.2127 31.1573L28.5231 28.2376L28.52 28.2384L29.2127 31.1573ZM11.1269 33.5919L14.0474 32.9058L14.0472 32.9051L11.1269 33.5919ZM14.6462 32.7651L11.7252 33.449L11.7262 33.4532L14.6462 32.7651ZM15.0873 41.2982L12.5473 42.8946L14.1441 45.4352L16.6843 43.8378L15.0873 41.2982ZM19.0188 47.5558L17.4227 45.0156L14.8832 46.6114L16.4782 49.1513L19.0188 47.5558ZM24.3532 49.248L25.9484 51.7887L28.4906 50.1926L26.893 47.6513L24.3532 49.248ZM22.0801 45.6322L24.6199 44.0356L23.0236 41.4963L20.484 43.0921L22.0801 45.6322ZM15.0849 41.2982L12.5266 42.8651C12.8588 43.4074 13.2953 43.8785 13.8108 44.251L15.5678 41.8193L17.3248 39.3877C17.4526 39.48 17.5608 39.5968 17.6432 39.7313L15.0849 41.2982ZM15.5678 41.8193L13.8108 44.251C14.3263 44.6235 14.9106 44.89 15.5299 45.0351L16.2142 42.1142L16.8985 39.1933C17.0521 39.2292 17.197 39.2953 17.3248 39.3877L15.5678 41.8193ZM16.2142 42.1142L15.5299 45.0351C16.1492 45.1802 16.7911 45.2009 17.4184 45.0962L16.9243 42.1371L16.4303 39.1781C16.5858 39.1521 16.7449 39.1573 16.8985 39.1933L16.2142 42.1142ZM16.9243 42.1371L17.4184 45.0962C18.0457 44.9914 18.646 44.7633 19.1845 44.4249L17.5884 41.8847L15.9923 39.3446C16.1259 39.2606 16.2747 39.2041 16.4303 39.1781L16.9243 42.1371ZM17.5884 41.8847L19.1845 44.4249C19.7231 44.0865 20.1891 43.6446 20.5557 43.1249L18.104 41.3959L15.6524 39.6669C15.7432 39.538 15.8588 39.4285 15.9923 39.3446L17.5884 41.8847ZM18.104 41.3959L20.5557 43.1249C20.9222 42.6051 21.182 42.0178 21.32 41.3969L18.3914 40.7461L15.4628 40.0954C15.497 39.9414 15.5615 39.7958 15.6524 39.6669L18.104 41.3959ZM18.3914 40.7461L21.32 41.3969C21.4579 40.776 21.4713 40.1339 21.3594 39.5079L18.4062 40.0358L15.4531 40.5638C15.4253 40.4085 15.4286 40.2493 15.4628 40.0954L18.3914 40.7461ZM18.4062 40.0358L21.3594 39.5079C21.2475 38.8818 21.0125 38.2841 20.6679 37.7495L18.1462 39.3746L15.6245 40.9998C15.5391 40.8672 15.4808 40.719 15.4531 40.5638L18.4062 40.0358ZM18.1462 39.3746L16.5501 36.8345L13.4888 38.758L15.0849 41.2982L16.681 43.8384L19.7423 41.9148L18.1462 39.3746ZM21.2895 51.1715L18.7678 52.7967C19.4534 53.8605 20.5307 54.611 21.7662 54.8856L22.4169 51.957L23.0677 49.0284C23.374 49.0965 23.6412 49.2826 23.8112 49.5464L21.2895 51.1715ZM22.4169 51.957L21.7662 54.8856C23.0016 55.1601 24.2955 54.9365 25.3671 54.2631L23.771 51.723L22.1749 49.1828C22.4406 49.0158 22.7614 48.9604 23.0677 49.0284L22.4169 51.957ZM23.771 51.723L25.3671 54.2631C26.4387 53.5898 27.2015 52.5211 27.4902 51.2889L24.5693 50.6046L21.6484 49.9203C21.72 49.6147 21.9091 49.3497 22.1749 49.1828L23.771 51.723ZM24.5693 50.6046L27.4902 51.2889C27.7789 50.0567 27.5701 48.7603 26.9091 47.6811L24.3508 49.248L21.7925 50.8148C21.6286 50.5472 21.5768 50.2258 21.6484 49.9203L24.5693 50.6046ZM24.3508 49.248L22.7547 46.7078L19.6934 48.6314L21.2895 51.1715L22.8856 53.7117L25.9469 51.7881L24.3508 49.248ZM0.807597 31.7382L-2.11141 31.0458C-2.25842 31.6656 -2.28081 32.3084 -2.17729 32.9369L0.782826 32.4493L3.74294 31.9617C3.76861 32.1175 3.76306 32.2769 3.7266 32.4306L0.807597 31.7382ZM0.782826 32.4493L-2.17729 32.9369C-2.07376 33.5653 -1.84639 34.167 -1.50837 34.7069L1.03435 33.1149L3.57708 31.5228C3.66089 31.6567 3.71727 31.8059 3.74294 31.9617L0.782826 32.4493ZM1.03435 33.1149L-1.50837 34.7069C-1.17035 35.2467 -0.728429 35.7141 -0.208268 36.0817L1.52322 33.6318L3.25471 31.1819C3.38369 31.2731 3.49326 31.389 3.57708 31.5228L1.03435 33.1149ZM1.52322 33.6318L-0.208268 36.0817C0.311898 36.4493 0.899924 36.7099 1.52164 36.8484L2.17371 33.9201L2.82577 30.9918C2.97992 31.0261 3.12572 31.0908 3.25471 31.1819L1.52322 33.6318ZM2.17371 33.9201L1.52164 36.8484C2.14338 36.9868 2.78642 37.0003 3.41342 36.8882L2.88505 33.9351L2.35669 30.982C2.51216 30.9541 2.6716 30.9575 2.82577 30.9918L2.17371 33.9201ZM2.88505 33.9351L3.41342 36.8882C4.04042 36.776 4.63888 36.5403 5.17404 36.1949L3.54709 33.6744L1.92014 31.1539C2.05283 31.0682 2.20122 31.0098 2.35669 30.982L2.88505 33.9351ZM3.54709 33.6744L5.17404 36.1949C5.70918 35.8495 6.17037 35.4011 6.53079 34.876L4.05726 33.1784L1.58372 31.4809C1.67309 31.3507 1.78745 31.2395 1.92014 31.1539L3.54709 33.6744ZM4.05726 33.1784L6.53079 34.876C6.89121 34.3508 7.14368 33.7592 7.27354 33.1356L4.33655 32.524L1.39955 31.9124C1.43175 31.7578 1.49435 31.6111 1.58372 31.4809L4.05726 33.1784ZM32.0692 30.2292L33.1252 33.0372C34.2891 32.5995 35.2382 31.7278 35.7731 30.6052L33.0649 29.3148L30.3566 28.0243C30.4892 27.7459 30.7246 27.5298 31.0132 27.4212L32.0692 30.2292ZM33.0649 29.3148L35.7731 30.6052C36.308 29.4826 36.3872 28.1964 35.9939 27.0167L33.1479 27.9654L30.3018 28.9141C30.2043 28.6215 30.224 28.3026 30.3566 28.0243L33.0649 29.3148ZM33.1479 27.9654L35.9939 27.0167C35.6007 25.837 34.7657 24.8555 33.6642 24.2784L32.2718 26.9357L30.8795 29.5931C30.6064 29.45 30.3994 29.2066 30.3018 28.9141L33.1479 27.9654ZM32.2718 26.9357L33.6642 24.2784C32.5627 23.7013 31.2804 23.5733 30.0866 23.9215L30.9266 26.8015L31.7666 29.6815C31.4706 29.7679 31.1526 29.7362 30.8795 29.5931L32.2718 26.9357ZM22.0777 45.6322L24.5994 44.0071C23.9138 42.9433 22.8365 42.1927 21.601 41.9182L20.9503 44.8468L20.2995 47.7753C19.9932 47.7073 19.726 47.5212 19.556 47.2574L22.0777 45.6322ZM20.9503 44.8468L21.601 41.9182C20.3656 41.6437 19.0717 41.8673 18.0001 42.5407L19.5962 45.0808L21.1923 47.621C20.9266 47.7879 20.6058 47.8434 20.2995 47.7753L20.9503 44.8468ZM19.5962 45.0808L18.0001 42.5407C16.9286 43.214 16.1657 44.2827 15.877 45.5149L18.7979 46.1992L21.7188 46.8835C21.6472 47.1891 21.458 47.454 21.1923 47.621L19.5962 45.0808ZM18.7979 46.1992L15.877 45.5149C15.5883 46.7471 15.7971 48.0434 16.4581 49.1227L19.0164 47.5558L21.5747 45.9889C21.7386 46.2565 21.7904 46.578 21.7188 46.8835L18.7979 46.1992ZM19.0164 47.5558L20.6125 50.096L23.6738 48.1724L22.0777 45.6322L20.4816 43.0921L17.4203 45.0156L19.0164 47.5558ZM11.621 21.1032L8.63597 20.8041L8.25271 24.6295L11.2378 24.9286L14.2228 25.2277L14.6061 21.4022L11.621 21.1032ZM14.8366 25.2902L17.8219 25.5874L18.2027 21.7619L15.2175 21.4647L12.2322 21.1675L11.8514 24.993L14.8366 25.2902ZM15.2175 21.4647L15.5176 18.4798L11.9211 18.1182L11.621 21.1032L11.3209 24.0881L14.9174 24.4497L15.2175 21.4647ZM13.4193 19.4761V16.4761H12.7178V19.4761V22.4761H13.4193V19.4761ZM12.7178 19.4761H9.7178V23.0918H12.7178H15.7178V19.4761H12.7178ZM12.7178 23.0918V26.0918H13.4193V23.0918V20.0918H12.7178V23.0918ZM1.54038 28.4431L-1.38808 27.7918L-2.12086 31.087L0.807597 31.7382L3.73606 32.3895L4.46884 29.0943L1.54038 28.4431ZM4.33655 32.524L7.26511 33.1748L7.99789 29.8773L5.06933 29.2265L2.14077 28.5757L1.40798 31.8732L4.33655 32.524ZM5.06933 29.2265L5.71949 26.2978L2.19054 25.5144L1.54038 28.4431L0.890229 31.3718L4.41918 32.1552L5.06933 29.2265ZM13.4193 23.0918V26.0918H17.6858V23.0918V20.0918H13.4193V23.0918ZM17.6858 19.4761V16.4761H13.4193V19.4761V22.4761H17.6858V19.4761ZM30.3095 30.8174L31.2605 33.6627L33.0202 33.0745L32.0692 30.2292L31.1181 27.384L29.3585 27.9721L30.3095 30.8174ZM30.9266 26.8015L29.9791 23.9551L28.2194 24.5408L29.1669 27.3873L30.1145 30.2337L31.8741 29.648L30.9266 26.8015ZM17.6858 23.0918V26.0918C17.901 26.0918 18.0148 26.0918 18.0885 26.0926C18.1608 26.0933 18.1305 26.0944 18.0716 26.0897L18.3077 23.099L18.5438 20.1083C18.2999 20.0891 18.0163 20.0918 17.6858 20.0918V23.0918ZM18.5656 19.4929L18.7652 16.4996C18.3921 16.4747 18.0138 16.4761 17.6858 16.4761V19.4761V22.4761C18.0713 22.4761 18.233 22.4774 18.3661 22.4863L18.5656 19.4929ZM24.6208 24.8924L27.5312 24.1648C27.4602 23.8807 27.3643 23.4762 27.2407 23.1014L24.3918 24.0415L21.5429 24.9817C21.5783 25.089 21.6078 25.2099 21.7103 25.62L24.6208 24.8924ZM20.9544 25.1672L18.1084 26.1159C18.0934 26.071 18.0891 26.0501 18.1059 26.1137C18.1237 26.1813 18.1516 26.2915 18.2031 26.4975L21.1135 25.7699L24.0239 25.0422C23.9374 24.696 23.8753 24.4431 23.8005 24.2185L20.9544 25.1672ZM21.1135 25.7699L21.8416 28.6802L25.3489 27.8027L24.6208 24.8924L23.8927 21.9821L20.3854 22.8595L21.1135 25.7699ZM18.3077 23.099L18.0894 26.0911C18.0941 26.0914 18.0957 26.0921 18.0957 26.0921C18.0962 26.0923 18.097 26.0927 18.098 26.0935C18.0991 26.0943 18.1 26.0953 18.1008 26.0965C18.1014 26.0972 18.103 26.0996 18.1049 26.1053L20.9544 25.1672L23.804 24.2292C23.0417 21.9135 20.9636 20.2849 18.5261 20.107L18.3077 23.099ZM24.3918 24.0415L27.2427 23.1077C26.6476 21.2906 25.5249 19.6918 24.0177 18.5152L22.1715 20.8798L20.3254 23.2445C20.8934 23.688 21.3165 24.2905 21.5408 24.9753L24.3918 24.0415ZM22.1715 20.8798L24.0177 18.5152C22.5105 17.3385 20.6871 16.6372 18.7799 16.5006L18.5656 19.4929L18.3514 22.4853C19.0702 22.5368 19.7574 22.8011 20.3254 23.2445L22.1715 20.8798ZM12.7202 19.4761V16.4761C10.9823 16.4761 9.25322 16.4688 7.80742 16.642L8.1644 19.6207L8.52137 22.5994C9.52945 22.4786 10.8424 22.4761 12.7202 22.4761V19.4761ZM8.1644 19.6207L7.79853 16.6431C6.22605 16.8363 4.44594 17.294 2.82588 18.5961L4.70535 20.9344L6.58482 23.2727C7.00403 22.9358 7.55244 22.7185 8.53026 22.5983L8.1644 19.6207ZM6.96639 23.7547L8.84047 26.0973C8.79756 26.1316 8.7437 26.1691 8.68366 26.2026C8.62525 26.2352 8.58296 26.2519 8.56784 26.2573C8.55517 26.2618 8.57482 26.2537 8.63999 26.2396C8.70577 26.2253 8.80964 26.2066 8.9631 26.1879L8.60069 23.2099L8.23829 20.2319C7.01545 20.3807 5.98596 20.6971 5.0923 21.4121L6.96639 23.7547ZM8.60069 23.2099L8.96079 26.1882C9.69514 26.0994 10.7423 26.0918 12.7202 26.0918V23.0918V20.0918C10.8992 20.0918 9.42017 20.089 8.2406 20.2316L8.60069 23.2099ZM12.7202 23.0918H15.7202V19.4761H12.7202H9.72021V23.0918H12.7202ZM5.07174 29.2265L8.00022 29.8777C8.42935 27.9478 8.66433 26.9307 8.9109 26.237L6.08415 25.2323L3.2574 24.2276C2.85796 25.3514 2.53853 26.7978 2.14327 28.5753L5.07174 29.2265ZM6.08415 25.2323L8.91486 26.2258C8.96589 26.0804 9.00634 25.9833 9.03437 25.9222C9.06214 25.8618 9.07428 25.8443 9.06715 25.8556C9.05866 25.8691 9.03328 25.9069 8.98862 25.9573C8.94269 26.009 8.89384 26.0543 8.84964 26.0899L6.96639 23.7547L5.08313 21.4194C4.19216 22.138 3.66097 23.0776 3.25343 24.2388L6.08415 25.2323ZM4.70535 20.9344L2.82857 18.594C1.2092 19.8925 0.373365 21.5252 -0.156593 23.0313L2.67331 24.0271L5.50322 25.0229C5.82657 24.104 6.15741 23.6154 6.58213 23.2749L4.70535 20.9344ZM2.67331 24.0271L-0.156524 23.0311C-0.639234 24.4025 -1.00798 26.093 -1.38723 27.7881L1.54038 28.4431L4.468 29.0981C4.87939 27.2594 5.16629 25.9801 5.50315 25.0231L2.67331 24.0271ZM1.54038 28.4431L0.890652 31.3719L4.42201 32.1553L5.07174 29.2265L5.72148 26.2977L2.19012 25.5143L1.54038 28.4431ZM21.1135 25.7674L18.2022 26.4915C18.3079 26.9163 18.428 27.4083 18.5852 27.8616L21.4197 26.8787L24.2541 25.8958C24.204 25.7513 24.1506 25.549 24.0248 25.0434L21.1135 25.7674ZM21.4197 26.8787L22.403 29.7129L25.8211 28.527L24.8377 25.6927L23.8543 22.8585L20.4363 24.0444L21.4197 26.8787ZM24.8377 25.6927L27.707 24.8168C27.6412 24.6012 27.5867 24.4024 27.5434 24.2157L24.6208 24.8924L21.6981 25.5692C21.7795 25.9207 21.8729 26.2558 21.9684 26.5686L24.8377 25.6927ZM24.6208 24.8924L23.8946 21.9817L20.3873 22.8567L21.1135 25.7674L21.8397 28.6782L25.347 27.8032L24.6208 24.8924ZM29.1669 27.3873L28.2221 24.5399C27.9508 24.63 27.7997 24.6799 27.7023 24.7111C27.603 24.7428 27.6245 24.7338 27.681 24.7202L28.3787 27.638L29.0764 30.5557C29.3485 30.4907 29.6656 30.3827 30.1117 30.2346L29.1669 27.3873ZM29.2127 31.1573L29.9024 34.0769C30.3732 33.9657 30.8925 33.7841 31.2491 33.6665L30.3095 30.8174L29.3699 27.9683C28.8202 28.1496 28.6646 28.2042 28.5231 28.2376L29.2127 31.1573ZM21.4197 26.8787L18.5855 27.8623C19.3677 30.116 20.9586 31.9991 23.05 33.1467L24.4932 30.5166L25.9364 27.8866C25.1482 27.4541 24.5486 26.7444 24.2538 25.895L21.4197 26.8787ZM24.4932 30.5166L23.05 33.1467C25.1387 34.2928 27.5813 34.6278 29.9055 34.0762L29.2127 31.1573L28.52 28.2384C27.6483 28.4452 26.7273 28.3206 25.9364 27.8866L24.4932 30.5166ZM28.3787 27.638L27.6847 24.7194C27.6883 24.7185 27.6843 24.7206 27.6753 24.7157L26.233 27.3462L24.7907 29.9768C26.0911 30.6898 27.6164 30.9029 29.0728 30.5566L28.3787 27.638ZM26.233 27.3462L27.6753 24.7157C27.6725 24.7141 27.6703 24.7116 27.6693 24.7085L24.8353 25.6927L22.0013 26.6769C22.4902 28.0845 23.4842 29.2604 24.7907 29.9768L26.233 27.3462ZM24.8353 25.6927L23.8513 22.8587L20.4356 24.0446L21.4197 26.8787L22.4037 29.7127L25.8193 28.5267L24.8353 25.6927ZM11.2378 24.9286L8.25264 24.6303C7.87622 28.3967 7.52133 31.3649 8.20655 34.2787L11.1269 33.5919L14.0472 32.9051C13.6429 31.1859 13.8087 29.3717 14.2229 25.2269L11.2378 24.9286ZM14.6462 32.7651L17.5672 32.0812C17.334 31.0854 17.3817 29.9893 17.8217 25.5887L14.8366 25.2902L11.8515 24.9917C11.4527 28.9795 11.2111 31.2533 11.7252 33.449L14.6462 32.7651ZM18.1462 39.3746L20.6868 37.7792C18.3326 34.0303 17.8008 33.0727 17.5662 32.077L14.6462 32.7651L11.7262 33.4532C12.2436 35.649 13.4763 37.5791 15.6056 40.97L18.1462 39.3746ZM11.1269 33.5919L8.20639 34.278C8.89161 37.1947 10.5341 39.6914 12.5473 42.8946L15.0873 41.2982L17.6273 39.7018C15.4077 36.1701 14.4517 34.6268 14.0474 32.9058L11.1269 33.5919ZM15.0873 41.2982L16.6843 43.8378L19.7432 41.9142L18.1462 39.3746L16.5492 36.835L13.4903 38.7586L15.0873 41.2982ZM19.0188 47.5558L16.4782 49.1513L18.7489 52.767L21.2895 51.1715L23.83 49.5761L21.5594 45.9603L19.0188 47.5558ZM21.2895 51.1715L22.8847 53.7123L25.9484 51.7887L24.3532 49.248L22.758 46.7072L19.6943 48.6308L21.2895 51.1715ZM24.3532 49.248L26.893 47.6513L24.6199 44.0356L22.0801 45.6322L19.5403 47.2289L21.8134 50.8447L24.3532 49.248ZM22.0801 45.6322L20.484 43.0921L17.4227 45.0156L19.0188 47.5558L20.6149 50.096L23.6762 48.1724L22.0801 45.6322Z" fill="#FF7E00" mask="url(#path-2-inside-1_50_386)"/>
<path d="M9.80274 39.3625L2.57129 50.2097" stroke="#FF7E00" stroke-width="3" stroke-linecap="round"/>
</svg>
